<svg width="1512" height="919" viewBox="0 0 1512 919" fill="none" xmlns="http://www.w3.org/2000/svg">
<path d="M171.53 772.5C171.53 826.9 124.625 871 66.7648 871C8.90481 871 -38 826.9 -38 772.5C-38 718.1 8.90481 674 66.7648 674C124.625 674 171.53 718.1 171.53 772.5Z" fill="#F7EDE4"/>
<path d="M383.186 820C383.186 874.676 335.805 919 277.358 919C218.911 919 171.53 874.676 171.53 820C171.53 765.324 218.911 721 277.358 721C335.805 721 383.186 765.324 383.186 820Z" fill="#F7EDE4"/>
<path d="M758.638 651.5C758.638 689.884 725.543 721 684.718 721C643.893 721 610.797 689.884 610.797 651.5C610.797 613.116 643.893 582 684.718 582C725.543 582 758.638 613.116 758.638 651.5Z" fill="#F7EDE4"/>
<path d="M888.398 663.5C888.398 701.884 855.302 733 814.477 733C773.652 733 740.557 701.884 740.557 663.5C740.557 625.116 773.652 594 814.477 594C855.302 594 888.398 625.116 888.398 663.5Z" fill="#F7EDE4"/>
<path d="M938.387 615.5C938.387 641.181 916.244 662 888.929 662C861.615 662 839.472 641.181 839.472 615.5C839.472 589.819 861.615 569 888.929 569C916.244 569 938.387 589.819 938.387 615.5Z" fill="#F7EDE4"/>
<path d="M1124.52 571.5C1124.52 597.181 1102.37 618 1075.06 618C1047.75 618 1025.6 597.181 1025.6 571.5C1025.6 545.819 1047.75 525 1075.06 525C1102.37 525 1124.52 545.819 1124.52 571.5Z" fill="#F7EDE4"/>
<path d="M1413.36 631.946C1408.45 660.292 1379.79 679.494 1349.35 674.835C1318.92 670.176 1298.22 643.42 1303.13 615.074C1308.04 586.729 1336.69 567.527 1367.13 572.186C1397.57 576.845 1418.26 603.6 1413.36 631.946Z" fill="#F7EDE4"/>
<path d="M1562.27 637.009C1557.31 665.627 1528.62 685.049 1498.18 680.39C1467.74 675.731 1447.08 648.755 1452.04 620.137C1456.99 591.519 1485.69 572.096 1516.12 576.755C1546.56 581.414 1567.22 608.39 1562.27 637.009Z" fill="#F7EDE4"/>
<path d="M1470.52 650.321C1467.26 669.127 1448.41 681.891 1428.41 678.829C1408.4 675.767 1394.83 658.04 1398.08 639.234C1401.34 620.428 1420.2 607.664 1440.2 610.726C1460.2 613.787 1473.78 631.515 1470.52 650.321Z" fill="#F7EDE4"/>
<path d="M1061.76 593C1061.76 631.108 1028.43 662 987.312 662C946.194 662 912.86 631.108 912.86 593C912.86 554.892 946.194 524 987.312 524C1028.43 524 1061.76 554.892 1061.76 593Z" fill="#F7EDE4"/>
<path d="M1345.49 582.044C1339.35 617.476 1303.83 641.524 1266.14 635.755C1228.46 629.987 1202.88 596.587 1209.01 561.155C1215.15 525.723 1250.67 501.676 1288.36 507.444C1326.04 513.213 1351.62 546.612 1345.49 582.044Z" fill="#F7EDE4"/>
<path d="M635.26 692.5C635.26 714.868 616.213 733 592.716 733C569.22 733 550.172 714.868 550.172 692.5C550.172 670.132 569.22 652 592.716 652C616.213 652 635.26 670.132 635.26 692.5Z" fill="#F7EDE4"/>
<path d="M216.201 778.5C216.201 800.868 196.677 819 172.593 819C148.509 819 128.986 800.868 128.986 778.5C128.986 756.132 148.509 738 172.593 738C196.677 738 216.201 756.132 216.201 778.5Z" fill="#F7EDE4"/>
<path d="M443.812 778.5C443.812 800.868 424.526 819 400.736 819C376.946 819 357.66 800.868 357.66 778.5C357.66 756.132 376.946 738 400.736 738C424.526 738 443.812 756.132 443.812 778.5Z" fill="#F7EDE4"/>
<path d="M504.437 778.5C504.437 800.868 485.389 819 461.893 819C438.397 819 419.349 800.868 419.349 778.5C419.349 756.132 438.397 738 461.893 738C485.389 738 504.437 756.132 504.437 778.5Z" fill="#F7EDE4"/>
<path d="M608.217 741.272C618.644 765.664 601.474 795.119 569.869 807.062C538.263 819.004 504.19 808.911 493.763 784.519C483.337 760.126 500.506 730.671 532.111 718.729C563.717 706.786 597.791 716.879 608.217 741.272Z" fill="#F7EDE4"/>
<path d="M1083.6 529.097C1144.89 506.379 1161.76 416.233 1162.54 374H1202.01C1177.86 470.117 1269.34 527.641 1318.09 544.388L1153.25 599C1104.49 585.165 1022.31 551.816 1083.6 529.097Z" fill="#F7EDE4"/>
<path d="M407.118 787L20.4981 750.5V813.5H1558.47L1549.96 630H1518.58C1508.48 630 1491.46 630 1464.34 635.5C1437.22 641 1428.18 642.5 1376.59 630C1325.01 617.5 1341.49 619 1320.22 606C1298.95 593 1253.21 568.5 1239.39 564C1225.56 559.5 1181.95 558.5 1153.77 556.5C1125.58 554.5 1026.67 605 1006.99 606C987.312 607 952.745 621.5 919.774 629C886.802 636.5 835.749 652.5 804.905 653.5C780.229 654.3 704.926 667.5 670.359 674C649.973 684 608.032 704.5 603.352 706.5C597.502 709 517.732 770.5 510.819 770.5C505.288 770.5 439.38 781.5 407.118 787Z" fill="#F7EDE4"/>
<path d="M1310.51 172.631L1250.95 146.036V260.598L1329 309.696L1310.51 172.631Z" fill="#8B0055"/>
<path d="M1063.7 172.631L1117.5 146.036V260.598L1047 309.696L1063.7 172.631Z" fill="#8B0055"/>
<path d="M1185.48 309.816V285.357V260.898V0C1185.48 0 1147.44 16.1995 1121.57 93.1474C1106.69 137.414 1099.94 178.746 1096.15 222.171C1093.71 250.077 1095.07 279.242 1097.03 309.816H1114.72V326.122H1135.46V342.429H1185.48V326.122V309.816Z" fill="#DCDFD9"/>
<path d="M1185.48 309.816V285.357V260.898V0C1185.48 0 1224.58 16.1995 1251.17 93.1474C1266.46 137.414 1273.4 178.746 1277.3 222.171C1279.8 250.077 1278.41 279.242 1276.39 309.816H1258.21V326.122H1236.9V342.429H1185.48V326.122V309.816Z" fill="#F9F1F9"/>
<path d="M1165.4 367.607C1178.78 367.607 1188.04 367.607 1210.67 367.607C1235.59 367.607 1216.85 439.38 1210.67 439.38C1204.5 439.38 1188.04 468.321 1188.04 468.321C1188.04 468.321 1174.66 439.38 1165.4 439.38C1156.14 439.38 1142.29 367.607 1165.4 367.607Z" fill="#E36018"/>
<path d="M1169.33 367.607C1180.38 367.607 1188.03 367.607 1206.73 367.607C1227.31 367.607 1211.83 421.437 1206.73 421.437C1201.63 421.437 1188.03 443.143 1188.03 443.143C1188.03 443.143 1176.98 421.437 1169.33 421.437C1161.68 421.437 1150.24 367.607 1169.33 367.607Z" fill="#FFAE44"/>
<path d="M1175.23 367.607C1182.79 367.607 1188.02 367.607 1200.82 367.607C1214.9 367.607 1204.31 403.494 1200.82 403.494C1197.33 403.494 1188.02 417.964 1188.02 417.964C1188.02 417.964 1180.46 403.494 1175.23 403.494C1169.99 403.494 1162.16 367.607 1175.23 367.607Z" fill="#FCE25E"/>
<path d="M1145.2 342.429H1228.29L1223.25 372.643H1152.75L1145.2 342.429Z" fill="#5B6575"/>
<circle cx="1186" cy="85.607" r="35.2857" fill="#F7EDE4" stroke="#5B6575" stroke-width="10"/>
<path d="M1167.38 175.525L1185 148.554L1202.62 175.525L1185 347.464L1167.38 175.525Z" fill="#8B0055"/>
</svg>
