<svg width="261" height="433" viewBox="0 0 261 433" fill="none" xmlns="http://www.w3.org/2000/svg">
<path d="M243.603 159.368L188.612 134.816V240.577L260.669 285.904L243.603 159.368Z" fill="#8B0055"/>
<path d="M15.7488 159.368L65.4179 134.816V240.577L0.334229 285.904L15.7488 159.368Z" fill="#8B0055"/>
<path d="M128.177 286.014V263.434V240.854V0C128.177 0 93.0578 14.955 69.1765 85.9912C55.438 126.857 49.2053 165.013 45.7063 205.102C43.4578 230.864 44.7099 257.789 46.5244 286.014H62.855V301.067H81.9965V316.121H128.177V301.067V286.014Z" fill="#DCDFD9"/>
<path d="M128.177 286.014V263.434V240.854L128.177 0C128.177 0 164.272 14.955 188.817 85.9912C202.937 126.857 209.343 165.013 212.939 205.102C215.25 230.864 213.963 257.789 212.098 286.014H195.314V301.067H175.641L175.641 316.121H128.177V301.067L128.177 286.014Z" fill="#F9F1F9"/>
<path d="M109.64 339.365C121.988 339.365 130.537 339.365 151.434 339.365C174.432 339.365 157.133 405.624 151.434 405.624C145.735 405.624 130.537 432.341 130.537 432.341C130.537 432.341 118.189 405.624 109.64 405.624C101.091 405.624 88.3041 339.365 109.64 339.365Z" fill="#E36018"/>
<path d="M113.268 339.365C123.469 339.365 130.531 339.365 147.794 339.365C166.792 339.365 152.502 389.059 147.794 389.059C143.086 389.059 130.531 409.097 130.531 409.097C130.531 409.097 120.33 389.059 113.268 389.059C106.206 389.059 95.643 339.365 113.268 339.365Z" fill="#FFAE44"/>
<path d="M118.71 339.365C125.69 339.365 130.521 339.365 142.333 339.365C155.332 339.365 145.554 372.494 142.333 372.494C139.111 372.494 130.521 385.853 130.521 385.853C130.521 385.853 123.542 372.494 118.71 372.494C113.878 372.494 106.651 339.365 118.71 339.365Z" fill="#FCE25E"/>
<path d="M90.9866 316.121H167.692L163.044 344.014H97.9598L90.9866 316.121Z" fill="#5B6575"/>
<circle cx="128.655" cy="79.03" r="32.1907" fill="#F7EDE4" stroke="#5B6575" stroke-width="10"/>
<path d="M111.461 162.039L127.732 137.141L144.003 162.039L127.732 320.77L111.461 162.039Z" fill="#8B0055"/>
</svg>
